<svg xmlns="http://www.w3.org/2000/svg" xmlns:xlink="http://www.w3.org/1999/xlink" viewBox="0 0 983.74 410.78"><defs><clipPath id="clip-path"><rect width="396.96" height="396.96" style="fill:none"></rect></clipPath><pattern id="New_Pattern_Swatch_10" data-name="New Pattern Swatch 10" width="396.96" height="396.96" patternTransform="translate(187.54 -361.34) scale(0.5)" patternUnits="userSpaceOnUse" viewBox="0 0 396.96 396.96"><rect width="396.96" height="396.96" style="fill:none"></rect><g style="clip-path:url(#clip-path)"><polygon points="113.5 118.66 118.66 113.5 104.39 99.24 118.66 84.98 113.5 79.82 99.24 94.08 84.97 79.82 79.82 84.98 94.08 99.24 79.82 113.5 84.98 118.66 99.24 104.39 113.5 118.66" style="fill:#fff"></polygon><polygon points="317.14 84.98 311.98 79.82 297.72 94.08 283.45 79.82 278.3 84.97 292.56 99.24 278.3 113.5 283.45 118.66 297.72 104.39 311.98 118.66 317.14 113.5 302.87 99.24 317.14 84.98" style="fill:#fff"></polygon><polygon points="118.66 283.45 113.5 278.3 99.24 292.56 84.98 278.3 79.82 283.45 94.08 297.72 79.82 311.98 84.98 317.14 99.24 302.87 113.5 317.14 118.66 311.98 104.39 297.72 118.66 283.45" style="fill:#fff"></polygon><polygon points="311.98 317.14 317.14 311.98 302.87 297.72 317.14 283.45 311.98 278.3 297.72 292.56 283.45 278.3 278.3 283.45 292.56 297.72 278.3 311.98 283.45 317.14 297.72 302.87 311.98 317.14" style="fill:#fff"></polygon></g></pattern></defs><title>cross bg pattern</title><g id="Layer_2" data-name="Layer 2"><g id="Layer_1-2" data-name="Layer 1"><rect width="983.74" height="410.78" style="opacity:0.1;fill:url(#New_Pattern_Swatch_10)"></rect></g></g></svg>