<?xml version="1.0" encoding="UTF-8" standalone="no" ?>
<!DOCTYPE svg PUBLIC "-//W3C//DTD SVG 1.1//EN" "http://www.w3.org/Graphics/SVG/1.1/DTD/svg11.dtd">
<svg xmlns="http://www.w3.org/2000/svg" xmlns:xlink="http://www.w3.org/1999/xlink" version="1.1" width="1080" height="1080" viewBox="0 0 1080 1080" xml:space="preserve">
<desc>Created with Fabric.js 5.2.4</desc>
<defs>
</defs>
<g transform="matrix(1 0 0 1 540 540)" id="7e581405-78bb-4ed9-bd65-6a689735a553"  >
<rect style="stroke: none; stroke-width: 1; stroke-dasharray: none; stroke-linecap: butt; stroke-dashoffset: 0; stroke-linejoin: miter; stroke-miterlimit: 4; fill: rgb(255,255,255); fill-rule: nonzero; opacity: 1; visibility: hidden;" vector-effect="non-scaling-stroke"  x="-540" y="-540" rx="0" ry="0" width="1080" height="1080" />
</g>
<g transform="matrix(1 0 0 1 540 540)" id="6382bcfc-3ee2-45c2-9e0c-e79558d61563"  >
</g>
<g transform="matrix(11.09 0 0 11.09 540 540)"  >
<g style=""   >
		<g transform="matrix(-1 0 0 -1 4.2 4.2)" id="Layer_1-2"  >
<rect style="stroke: none; stroke-width: 1; stroke-dasharray: none; stroke-linecap: butt; stroke-dashoffset: 0; stroke-linejoin: miter; stroke-miterlimit: 4; fill: rgb(255,255,255); fill-rule: nonzero; opacity: 1;" vector-effect="non-scaling-stroke"  x="-44.515" y="-14.735" rx="0" ry="0" width="89.03" height="29.47" />
</g>
		<g transform="matrix(0 -1 1 0 4.19 4.2)" id="Layer_1-2"  >
<rect style="stroke: none; stroke-width: 1; stroke-dasharray: none; stroke-linecap: butt; stroke-dashoffset: 0; stroke-linejoin: miter; stroke-miterlimit: 4; fill: rgb(255,255,255); fill-rule: nonzero; opacity: 1;" vector-effect="non-scaling-stroke"  x="-44.515" y="-14.735" rx="0" ry="0" width="89.03" height="29.47" />
</g>
		<g transform="matrix(-1 0 0 -1 -4.2 -4.2)" id="Layer_1-2"  >
<rect style="stroke: none; stroke-width: 1; stroke-dasharray: none; stroke-linecap: butt; stroke-dashoffset: 0; stroke-linejoin: miter; stroke-miterlimit: 4; fill: rgb(255,0,146); fill-rule: nonzero; opacity: 1;" vector-effect="non-scaling-stroke"  x="-44.515" y="-14.735" rx="0" ry="0" width="89.03" height="29.47" />
</g>
		<g transform="matrix(0 -1 1 0 -4.2 -4.2)" id="Layer_1-2"  >
<rect style="stroke: none; stroke-width: 1; stroke-dasharray: none; stroke-linecap: butt; stroke-dashoffset: 0; stroke-linejoin: miter; stroke-miterlimit: 4; fill: rgb(255,0,146); fill-rule: nonzero; opacity: 1;" vector-effect="non-scaling-stroke"  x="-44.515" y="-14.735" rx="0" ry="0" width="89.03" height="29.47" />
</g>
</g>
</g>
</svg>