<?xml version="1.0" encoding="UTF-8" standalone="no" ?>
<!DOCTYPE svg PUBLIC "-//W3C//DTD SVG 1.1//EN" "http://www.w3.org/Graphics/SVG/1.1/DTD/svg11.dtd">
<svg xmlns="http://www.w3.org/2000/svg" xmlns:xlink="http://www.w3.org/1999/xlink" version="1.1" width="1080" height="1080" viewBox="0 0 1080 1080" xml:space="preserve">
<desc>Created with Fabric.js 5.2.4</desc>
<defs>
</defs>
<g transform="matrix(1 0 0 1 540 540)" id="67f1ec1d-de85-4227-8a2f-57777e4c6ed4"  >
<rect style="stroke: none; stroke-width: 1; stroke-dasharray: none; stroke-linecap: butt; stroke-dashoffset: 0; stroke-linejoin: miter; stroke-miterlimit: 4; fill: rgb(255,255,255); fill-rule: nonzero; opacity: 1; visibility: hidden;" vector-effect="non-scaling-stroke"  x="-540" y="-540" rx="0" ry="0" width="1080" height="1080" />
</g>
<g transform="matrix(1 0 0 1 540 540)" id="d0e0ea4a-6684-410e-96fe-0f63ca8300a0"  >
</g>
<g transform="matrix(5.05 0 0 5.05 540 540)"  >
<g style=""   >
		<g transform="matrix(-0.71 0.71 -0.71 -0.71 12.52 12.53)" id="Layer_1-2"  >
<rect style="stroke: none; stroke-width: 1; stroke-dasharray: none; stroke-linecap: butt; stroke-dashoffset: 0; stroke-linejoin: miter; stroke-miterlimit: 4; fill: rgb(255,255,255); fill-rule: nonzero; opacity: 1;" vector-effect="non-scaling-stroke"  x="-100.355" y="-33.22" rx="0" ry="0" width="200.71" height="66.44" />
</g>
		<g transform="matrix(-0.71 -0.71 0.71 -0.71 12.52 12.52)" id="Layer_1-2"  >
<rect style="stroke: none; stroke-width: 1; stroke-dasharray: none; stroke-linecap: butt; stroke-dashoffset: 0; stroke-linejoin: miter; stroke-miterlimit: 4; fill: rgb(255,255,255); fill-rule: nonzero; opacity: 1;" vector-effect="non-scaling-stroke"  x="-100.355" y="-33.22" rx="0" ry="0" width="200.71" height="66.44" />
</g>
		<g transform="matrix(-0.71 0.71 -0.71 -0.71 -12.52 -12.52)" id="Layer_1-2"  >
<rect style="stroke: none; stroke-width: 1; stroke-dasharray: none; stroke-linecap: butt; stroke-dashoffset: 0; stroke-linejoin: miter; stroke-miterlimit: 4; fill: rgb(255,0,144); fill-rule: nonzero; opacity: 1;" vector-effect="non-scaling-stroke"  x="-100.355" y="-33.22" rx="0" ry="0" width="200.71" height="66.44" />
</g>
		<g transform="matrix(-0.71 -0.71 0.71 -0.71 -12.53 -12.52)" id="Layer_1-2"  >
<rect style="stroke: none; stroke-width: 1; stroke-dasharray: none; stroke-linecap: butt; stroke-dashoffset: 0; stroke-linejoin: miter; stroke-miterlimit: 4; fill: rgb(255,0,144); fill-rule: nonzero; opacity: 1;" vector-effect="non-scaling-stroke"  x="-100.355" y="-33.22" rx="0" ry="0" width="200.71" height="66.44" />
</g>
</g>
</g>
</svg>