<?xml version="1.0" encoding="UTF-8" standalone="no" ?>
<!DOCTYPE svg PUBLIC "-//W3C//DTD SVG 1.1//EN" "http://www.w3.org/Graphics/SVG/1.1/DTD/svg11.dtd">
<svg xmlns="http://www.w3.org/2000/svg" xmlns:xlink="http://www.w3.org/1999/xlink" version="1.1" width="1080" height="1080" viewBox="0 0 1080 1080" xml:space="preserve">
<desc>Created with Fabric.js 5.2.4</desc>
<defs>
</defs>
<g transform="matrix(1 0 0 1 540 540)" id="a6165eba-605b-49e6-8995-7f5be222ec35"  >
<rect style="stroke: none; stroke-width: 1; stroke-dasharray: none; stroke-linecap: butt; stroke-dashoffset: 0; stroke-linejoin: miter; stroke-miterlimit: 4; fill: rgb(255,255,255); fill-rule: nonzero; opacity: 1; visibility: hidden;" vector-effect="non-scaling-stroke"  x="-540" y="-540" rx="0" ry="0" width="1080" height="1080" />
</g>
<g transform="matrix(1 0 0 1 540 540)" id="96726bf3-73c9-44f2-b200-50dc4c5e6315"  >
</g>
<g transform="matrix(21.11 0 0 21.11 540 540)"  >
<g style=""   >
		<g transform="matrix(-0.71 0.71 -0.71 -0.71 2.99 2.99)" id="Layer_1-2"  >
<rect style="stroke: none; stroke-width: 1; stroke-dasharray: none; stroke-linecap: butt; stroke-dashoffset: 0; stroke-linejoin: miter; stroke-miterlimit: 4; fill: rgb(37,31,32); fill-rule: nonzero; opacity: 1;" vector-effect="non-scaling-stroke"  x="-23.995" y="-7.945" rx="0" ry="0" width="47.99" height="15.89" />
</g>
		<g transform="matrix(-0.71 -0.71 0.71 -0.71 2.99 2.99)" id="Layer_1-2"  >
<rect style="stroke: none; stroke-width: 1; stroke-dasharray: none; stroke-linecap: butt; stroke-dashoffset: 0; stroke-linejoin: miter; stroke-miterlimit: 4; fill: rgb(37,31,32); fill-rule: nonzero; opacity: 1;" vector-effect="non-scaling-stroke"  x="-23.995" y="-7.945" rx="0" ry="0" width="47.99" height="15.89" />
</g>
		<g transform="matrix(-0.71 0.71 -0.71 -0.71 -3 -3)" id="Layer_1-2"  >
<rect style="stroke: none; stroke-width: 1; stroke-dasharray: none; stroke-linecap: butt; stroke-dashoffset: 0; stroke-linejoin: miter; stroke-miterlimit: 4; fill: rgb(255,0,144); fill-rule: nonzero; opacity: 1;" vector-effect="non-scaling-stroke"  x="-23.995" y="-7.945" rx="0" ry="0" width="47.99" height="15.89" />
</g>
		<g transform="matrix(-0.71 -0.71 0.71 -0.71 -3 -3)" id="Layer_1-2"  >
<rect style="stroke: none; stroke-width: 1; stroke-dasharray: none; stroke-linecap: butt; stroke-dashoffset: 0; stroke-linejoin: miter; stroke-miterlimit: 4; fill: rgb(255,0,144); fill-rule: nonzero; opacity: 1;" vector-effect="non-scaling-stroke"  x="-23.995" y="-7.945" rx="0" ry="0" width="47.99" height="15.89" />
</g>
</g>
</g>
</svg>