<?xml version="1.0" encoding="UTF-8" standalone="no" ?>
<!DOCTYPE svg PUBLIC "-//W3C//DTD SVG 1.1//EN" "http://www.w3.org/Graphics/SVG/1.1/DTD/svg11.dtd">
<svg xmlns="http://www.w3.org/2000/svg" xmlns:xlink="http://www.w3.org/1999/xlink" version="1.1" width="1080" height="800" viewBox="0 0 1080 800" xml:space="preserve">
<desc>Created with Fabric.js 5.2.4</desc>
<defs>
</defs>
<rect x="0" y="0" width="100%" height="100%" fill="transparent"></rect>
<g transform="matrix(Infinity NaN NaN Infinity 0 0)" id="fe6545e8-4134-499d-866c-1a8aef56c205"  >
</g>
<g transform="matrix(1 0 0 1 540 400)" id="dc128d60-a0b3-4100-865e-307405f992a5"  >
<rect style="stroke: none; stroke-width: 1; stroke-dasharray: none; stroke-linecap: butt; stroke-dashoffset: 0; stroke-linejoin: miter; stroke-miterlimit: 4; fill: rgb(255,255,255); fill-rule: nonzero; opacity: 1; visibility: hidden;" vector-effect="non-scaling-stroke"  x="-540" y="-400" rx="0" ry="0" width="1080" height="800" />
</g>
<g transform="matrix(1.88 0 0 1.88 541 400)"  >
<g style=""   >
		<g transform="matrix(-0.71 0.71 -0.71 -0.71 -20 0)" id="Layer_1-2"  >
<rect style="stroke: none; stroke-width: 1; stroke-dasharray: none; stroke-linecap: butt; stroke-dashoffset: 0; stroke-linejoin: miter; stroke-miterlimit: 4; fill: rgb(255,255,255); fill-rule: nonzero; opacity: 1;" vector-effect="non-scaling-stroke"  x="-216.39" y="-71.63" rx="0" ry="0" width="432.78" height="143.26" />
</g>
		<g transform="matrix(-0.71 -0.71 0.71 -0.71 -20 -0.01)" id="Layer_1-2"  >
<rect style="stroke: none; stroke-width: 1; stroke-dasharray: none; stroke-linecap: butt; stroke-dashoffset: 0; stroke-linejoin: miter; stroke-miterlimit: 4; fill: rgb(255,255,255); fill-rule: nonzero; opacity: 1;" vector-effect="non-scaling-stroke"  x="-216.39" y="-71.63" rx="0" ry="0" width="432.78" height="143.26" />
</g>
		<g transform="matrix(1 0 0 1 -102.56 110.32)"  >
<path style="stroke: none; stroke-width: 1; stroke-dasharray: none; stroke-linecap: butt; stroke-dashoffset: 0; stroke-linejoin: miter; stroke-miterlimit: 4; fill: rgb(35,31,32); fill-rule: nonzero; opacity: 1;" vector-effect="non-scaling-stroke"  transform=" translate(-180.13, -313.99)" d="M 190.74 304.85 C 187.41435201834838 302.1434227885199 183.22596847476467 300.7236317567966 178.94 300.85 C 174.84 300.85 170.65 302.31 170.65 306.31 C 170.65 310.31 175.92000000000002 310.6 181.09 310.89 C 186.65 311.28 195.62 311.82 195.62 320.36 C 195.62 327.77000000000004 189.04 330.74 181.38 330.74 C 175.161853046967 330.84667758947757 169.15172790883065 328.50082480095216 164.65 324.21000000000004 L 167.24 321.28000000000003 C 171.0228356151943 325.04158742718823 176.1452900421915 327.14596652816675 181.48000000000002 327.13000000000005 C 186.89000000000001 327.13000000000005 191.38000000000002 325.18000000000006 191.38000000000002 320.89000000000004 C 191.38000000000002 316.11000000000007 186.50000000000003 315.38000000000005 181.09000000000003 314.99000000000007 C 174.21000000000004 314.55000000000007 166.41000000000003 314.06000000000006 166.41000000000003 306.70000000000005 C 166.41000000000003 299.34000000000003 173.41000000000003 297.24000000000007 179.09000000000003 297.24000000000007 C 184.19974019050653 297.1855403241597 189.1856864508573 298.81238536893943 193.28000000000003 301.87000000000006 Z" stroke-linecap="round" />
</g>
		<g transform="matrix(1 0 0 1 -61.22 110.79)"  >
<path style="stroke: none; stroke-width: 1; stroke-dasharray: none; stroke-linecap: butt; stroke-dashoffset: 0; stroke-linejoin: miter; stroke-miterlimit: 4; fill: rgb(35,31,32); fill-rule: nonzero; opacity: 1;" vector-effect="non-scaling-stroke"  transform=" translate(-221.47, -314.45)" d="M 235.46 298.12 L 235.46 318.65 C 235.46 326.4 229.46 330.78999999999996 221.41 330.78999999999996 C 213.35999999999999 330.78999999999996 207.47 326.4 207.47 318.65 L 207.47 298.12 L 211.66 298.12 L 211.66 318.65 C 211.66 324.06 215.95 327.03999999999996 221.41 327.03999999999996 C 226.87 327.03999999999996 231.22 324.03999999999996 231.22 318.65 L 231.22 298.12 Z" stroke-linecap="round" />
</g>
		<g transform="matrix(1 0 0 1 -15.81 110.4)"  >
<path style="stroke: none; stroke-width: 1; stroke-dasharray: none; stroke-linecap: butt; stroke-dashoffset: 0; stroke-linejoin: miter; stroke-miterlimit: 4; fill: rgb(35,31,32); fill-rule: nonzero; opacity: 1;" vector-effect="non-scaling-stroke"  transform=" translate(-266.88, -314.06)" d="M 279 330 L 279 305.82 L 278.75 305.82 L 267.2 325.18 L 266.32 325.18 L 254.81 305.82 L 254.57 305.82 L 254.57 330 L 250.57 330 L 250.57 298.12 L 255 298.12 L 266.9 318.12 L 267 318.12 L 278.9 298.12 L 283.19 298.12 L 283.19 330 Z" stroke-linecap="round" />
</g>
		<g transform="matrix(1 0 0 1 32.55 110.4)"  >
<path style="stroke: none; stroke-width: 1; stroke-dasharray: none; stroke-linecap: butt; stroke-dashoffset: 0; stroke-linejoin: miter; stroke-miterlimit: 4; fill: rgb(35,31,32); fill-rule: nonzero; opacity: 1;" vector-effect="non-scaling-stroke"  transform=" translate(-315.24, -314.06)" d="M 327.33 330 L 327.33 305.82 L 327.09 305.82 L 315.58 325.18 L 314.7 325.18 L 303.19 305.82 L 303 305.82 L 303 330 L 298.9 330 L 298.9 298.12 L 303.38 298.12 L 315.28 318.12 L 315.38 318.12 L 327.28 298.12 L 331.57 298.12 L 331.57 330 Z" stroke-linecap="round" />
</g>
		<g transform="matrix(1 0 0 1 66.7 110.4)"  >
<path style="stroke: none; stroke-width: 1; stroke-dasharray: none; stroke-linecap: butt; stroke-dashoffset: 0; stroke-linejoin: miter; stroke-miterlimit: 4; fill: rgb(35,31,32); fill-rule: nonzero; opacity: 1;" vector-effect="non-scaling-stroke"  transform=" translate(-349.39, -314.06)" d="M 347.27 330 L 347.27 298.12 L 351.51 298.12 L 351.51 330 Z" stroke-linecap="round" />
</g>
		<g transform="matrix(1 0 0 1 94.63 110.4)"  >
<path style="stroke: none; stroke-width: 1; stroke-dasharray: none; stroke-linecap: butt; stroke-dashoffset: 0; stroke-linejoin: miter; stroke-miterlimit: 4; fill: rgb(35,31,32); fill-rule: nonzero; opacity: 1;" vector-effect="non-scaling-stroke"  transform=" translate(-377.32, -314.06)" d="M 362.82 298.12 L 391.82 298.12 L 391.82 301.87 L 379.46 301.87 L 379.46 330 L 375.21 330 L 375.21 301.87 L 362.82 301.87 Z" stroke-linecap="round" />
</g>
		<g transform="matrix(1 0 0 1 -167.97 -100.06)"  >
<path style="stroke: none; stroke-width: 1; stroke-dasharray: none; stroke-linecap: butt; stroke-dashoffset: 0; stroke-linejoin: miter; stroke-miterlimit: 4; fill: rgb(255,0,144); fill-rule: nonzero; opacity: 1;" vector-effect="non-scaling-stroke"  transform=" translate(-114.72, -103.6)" d="M 82.68 152.62 L 82.68 54.53 L 84.07000000000001 54.53 L 84.07000000000001 152.62 Z M 86.86000000000001 152.62 L 86.86000000000001 54.53 L 88.25000000000001 54.53 L 88.25000000000001 152.62 Z M 91.04000000000002 152.62 L 91.04000000000002 54.53 L 92.43000000000002 54.53 L 92.43000000000002 152.62 Z M 95.22000000000003 152.62 L 95.22000000000003 54.53 L 96.61000000000003 54.53 L 96.61000000000003 152.62 Z M 99.40000000000003 152.62 L 99.40000000000003 54.53 L 100.79000000000003 54.53 L 100.79000000000003 152.62 Z M 103.58000000000004 152.62 L 103.58000000000004 54.53 L 105 54.53 L 105 152.62 Z M 107.76000000000005 152.62 L 107.76000000000005 54.53 L 109.15000000000005 54.53 L 109.15000000000005 152.62 Z M 111.94000000000005 152.62 L 111.94000000000005 54.53 L 113.33000000000006 54.53 L 113.33000000000006 152.62 Z M 116.12000000000006 152.62 L 116.12000000000006 55 L 117.51000000000006 55.27 L 117.51000000000006 152.67000000000002 Z M 120.30000000000007 152.62 L 120.30000000000007 55.92 L 121.69000000000007 56.2 L 121.69000000000007 152.62 Z M 124.48000000000008 152.06 L 124.48000000000008 57.31 L 125.87000000000008 58.010000000000005 L 125.87000000000008 151.64 Z M 128.66000000000008 150.81 L 128.66000000000008 59.68 L 130.05000000000007 60.68 L 130.05000000000007 150.13 Z M 132.8400000000001 148.58 L 132.8400000000001 62.89 L 134.23000000000008 64.28 L 134.23000000000008 147.74 Z M 137 99 L 137 68.18 L 138.39 70.27000000000001 L 138.39 96.75 Z M 137 145.4 L 137 101.06 L 138.39 102.46000000000001 L 138.39 144.4 Z M 141.18 141.08 L 141.18 105.52 L 142.57 107.52 L 142.57 139.1 Z M 145.36 133.56 L 145.36 113.47 C 145.9993816371421 115.18231477574243 146.46505494868342 116.95455349376654 146.75 118.75999999999998 L 146.75 127.68 C 146.474947993544 129.66811935066963 146.0163220134368 131.6264857620763 145.38 133.53 Z" stroke-linecap="round" />
</g>
		<g transform="matrix(1 0 0 1 -87 -100.04)"  >
<path style="stroke: none; stroke-width: 1; stroke-dasharray: none; stroke-linecap: butt; stroke-dashoffset: 0; stroke-linejoin: miter; stroke-miterlimit: 4; fill: rgb(255,0,144); fill-rule: nonzero; opacity: 1;" vector-effect="non-scaling-stroke"  transform=" translate(-195.69, -103.62)" d="M 163.63 152.62 L 163.63 54.53 L 165 54.53 L 165 152.62 Z M 167.81 152.62 L 167.81 54.53 L 169.2 54.53 L 169.2 152.62 Z M 171.99 152.62 L 171.99 54.53 L 173.38 54.53 L 173.38 152.62 Z M 176.17000000000002 152.62 L 176.17000000000002 54.53 L 177.56 54.53 L 177.56 152.62 Z M 180.35000000000002 152.62 L 180.35000000000002 54.53 L 181.74 54.53 L 181.74 152.62 Z M 184.53000000000003 152.62 L 184.53000000000003 54.53 L 185.92000000000002 54.53 L 185.92000000000002 152.62 Z M 188.71000000000004 152.62 L 188.71000000000004 54.53 L 190.10000000000002 54.53 L 190.10000000000002 152.62 Z M 192.89000000000004 112.91 L 192.89000000000004 54.53 L 194.28000000000003 54.53 L 194.28000000000003 112.91 Z M 192.89000000000004 152.62 L 192.89000000000004 115.84 L 194.28000000000003 117.23 L 194.28000000000003 152.62 Z M 197.07000000000005 112.62 L 197.07000000000005 55 L 198.46000000000004 55.27 L 198.46000000000004 112.4 Z M 197.07000000000005 152.62 L 197.07000000000005 120 L 198.46000000000004 121.39 L 198.46000000000004 152.6 Z M 201.25000000000006 111.79 L 201.25000000000006 55.92 L 202.64000000000004 56.2 L 202.64000000000004 111.38 Z M 201.25000000000006 152.62 L 201.25000000000006 124.19 L 202.64000000000004 125.59 L 202.64000000000004 152.59 Z M 205.43000000000006 110.12 L 205.43000000000006 57.31 L 206.82000000000005 58.010000000000005 L 206.82000000000005 109.56 Z M 205.43000000000006 152.62 L 205.43000000000006 128.37 L 206.82000000000005 129.77 L 206.82000000000005 152.62 Z M 209.61000000000007 107.89000000000001 L 209.61000000000007 59.68 L 211.00000000000006 60.68 L 211.00000000000006 106.94 Z M 209.61000000000007 152.62 L 209.61000000000007 132.55 L 211 134 L 211 152.67000000000002 Z M 213.79000000000008 104.41 L 213.79000000000008 62.89 L 215.18000000000006 64.28 L 215.18000000000006 103 Z M 213.79000000000008 152.62 L 213.79000000000008 136.73 L 215.18000000000006 138.13 L 215.18000000000006 152.62 Z M 218 99 L 218 68.18 L 219.39 70.27000000000001 L 219.39 96.75 Z M 218 152.65 L 218 140.91 L 219.39 142.31 L 219.39 152.62 Z M 222.18 152.65 L 222.18 145.12 L 223.57 146.52 L 223.57 152.65 Z M 226.36 152.65 L 226.36 149.3 L 227.75 150.70000000000002 L 227.75 152.70000000000002 Z" stroke-linecap="round" />
</g>
		<g transform="matrix(1 0 0 1 0.69 -111.09)"  >
<path style="stroke: none; stroke-width: 1; stroke-dasharray: none; stroke-linecap: butt; stroke-dashoffset: 0; stroke-linejoin: miter; stroke-miterlimit: 4; fill: rgb(255,0,144); fill-rule: nonzero; opacity: 1;" vector-effect="non-scaling-stroke"  transform=" translate(-283.38, -92.58)" d="M 241.93 133 L 242.62 131.61 L 324.27 131.61 L 324.83 133 Z M 244.02 128.82 L 244.71 127.42999999999999 L 322.18 127.42999999999999 L 322.88 128.82 Z M 246.11 124.63999999999999 L 246.8 123.24999999999999 L 320.09000000000003 123.24999999999999 L 320.79 124.63999999999999 Z M 248.20000000000002 120.45999999999998 L 248.89000000000001 119.06999999999998 L 318 119.06999999999998 L 318.7 120.45999999999998 Z M 250.29000000000002 116.27999999999997 L 250.98000000000002 114.88999999999997 L 315.91 114.88999999999997 L 316.61 116.27999999999997 Z M 252.38000000000002 112.09999999999997 L 253.07000000000002 110.70999999999997 L 313.82000000000005 110.70999999999997 L 314.52000000000004 112.09999999999997 Z M 254.38000000000002 107.91999999999996 L 255.08 106.52999999999996 L 311.78000000000003 106.52999999999996 L 312.48 107.91999999999996 Z M 256.47 103.73999999999995 L 257.17 102.34999999999995 L 309.69 102.34999999999995 L 310.39 103.73999999999995 Z M 258.56 99.55999999999995 L 259.25 98.16999999999994 L 307.6 98.16999999999994 L 308.3 99.55999999999995 Z M 260.65 95.37999999999994 L 261.34 93.98999999999994 L 305.51 93.98999999999994 L 306.21 95.37999999999994 Z M 262.73999999999995 91.19999999999993 L 263.42999999999995 89.80999999999993 L 303.42999999999995 89.80999999999993 L 304.12999999999994 91.19999999999993 Z M 264.78 87 L 265.34 85.61 L 301.28 85.61 L 302 87 Z M 266.86999999999995 82.82 L 267.56999999999994 81.42999999999999 L 299.18999999999994 81.42999999999999 L 299.88999999999993 82.82 Z M 269 78.63 L 269.69 77.24 L 297.1 77.24 L 297.8 78.63 Z M 271.09 74.44999999999999 L 271.78 73.05999999999999 L 295 73.05999999999999 L 295.7 74.44999999999999 Z M 273.17999999999995 70.26999999999998 L 273.86999999999995 68.87999999999998 L 292.9599999999999 68.87999999999998 L 293.6599999999999 70.26999999999998 Z M 275.2699999999999 66.08999999999997 L 275.9699999999999 64.69999999999997 L 290.8699999999999 64.69999999999997 L 291.5699999999999 66.08999999999997 Z M 277.3599999999999 61.909999999999975 L 278.0599999999999 60.519999999999975 L 288.7799999999999 60.519999999999975 L 289.4799999999999 61.909999999999975 Z M 279.4499999999999 57.729999999999976 L 280.1399999999999 56.339999999999975 L 286.6899999999999 56.339999999999975 L 287.3899999999999 57.729999999999976 Z M 281.53999999999985 53.549999999999976 L 282.22999999999985 52.159999999999975 L 284.59999999999985 52.159999999999975 L 285.29999999999984 53.549999999999976 Z" stroke-linecap="round" />
</g>
		<g transform="matrix(1 0 0 1 90.35 -100.08)"  >
<path style="stroke: none; stroke-width: 1; stroke-dasharray: none; stroke-linecap: butt; stroke-dashoffset: 0; stroke-linejoin: miter; stroke-miterlimit: 4; fill: rgb(255,0,144); fill-rule: nonzero; opacity: 1;" vector-effect="non-scaling-stroke"  transform=" translate(-373.04, -103.58)" d="M 345.17 152.62 L 345.17 54.53 L 346.56 54.53 L 346.56 152.62 Z M 349.35 152.62 L 349.35 54.53 L 350.74 54.53 L 350.74 152.62 Z M 353.53000000000003 152.62 L 353.53000000000003 54.53 L 354.92 54.53 L 354.92 152.62 Z M 357.71000000000004 152.62 L 357.71000000000004 54.53 L 359.1 54.53 L 359.1 152.62 Z M 361.89000000000004 152.62 L 361.89000000000004 54.53 L 363.28000000000003 54.53 L 363.28000000000003 152.62 Z M 366.07000000000005 152.62 L 366.07000000000005 54.53 L 367.46000000000004 54.53 L 367.46000000000004 152.62 Z M 370.25000000000006 152.62 L 370.25000000000006 54.53 L 371.64000000000004 54.53 L 371.64000000000004 152.62 Z M 374.43000000000006 152.62 L 374.43000000000006 54.53 L 375.82000000000005 54.53 L 375.82000000000005 152.62 Z M 378.61000000000007 152.62 L 378.61000000000007 54.53 L 380 54.53 L 380 152.62 Z M 382.7900000000001 152.62 L 382.7900000000001 54.53 L 384.18000000000006 54.53 L 384.18000000000006 152.62 Z M 386.9700000000001 152.62 L 386.9700000000001 54.53 L 388.36000000000007 54.53 L 388.36000000000007 152.62 Z M 391.1500000000001 152.62 L 391.1500000000001 54.53 L 392.5400000000001 54.53 L 392.5400000000001 152.62 Z M 395.3300000000001 152.62 L 395.3300000000001 54.53 L 396.7200000000001 54.53 L 396.7200000000001 152.62 Z M 399.5100000000001 152.62 L 399.5100000000001 54.53 L 400.9000000000001 54.53 L 400.9000000000001 152.62 Z" stroke-linecap="round" />
</g>
		<g transform="matrix(1 0 0 1 168.36 -100.16)"  >
<path style="stroke: none; stroke-width: 1; stroke-dasharray: none; stroke-linecap: butt; stroke-dashoffset: 0; stroke-linejoin: miter; stroke-miterlimit: 4; fill: rgb(255,0,144); fill-rule: nonzero; opacity: 1;" vector-effect="non-scaling-stroke"  transform=" translate(-451.05, -103.5)" d="M 421.1 54.11 L 422.49 54.11 L 422.49 152.9 L 421.1 152.9 Z M 425.28000000000003 54.11 L 426.67 54.11 L 426.67 152.9 L 425.28000000000003 152.9 Z M 429.46000000000004 54.11 L 430.85 54.11 L 430.85 152.9 L 429.46000000000004 152.9 Z M 433.64000000000004 54.11 L 435 54.11 L 435 152.9 L 433.61 152.9 Z M 437.82000000000005 54.25 L 439.21000000000004 54.25 L 439.21000000000004 152.62 L 437.82000000000005 152.76 Z M 442.00000000000006 54.53 L 443.39000000000004 54.81 L 443.39000000000004 151.92000000000002 L 442.00000000000006 152.20000000000002 Z M 446.18000000000006 55.36 L 447.57000000000005 55.78 L 447.57000000000005 151.09 L 446.18000000000006 151.5 Z M 450.36000000000007 56.48 L 451.75000000000006 57.04 L 451.75000000000006 149.83 L 450.36000000000007 150.25 Z M 454.5400000000001 58.15 L 455.93000000000006 58.85 L 455.93000000000006 148 L 454.5400000000001 148.7 Z M 458.7200000000001 60.239999999999995 L 460.11000000000007 61.239999999999995 L 460.11000000000007 145.81 L 458.7200000000001 146.65 Z M 462.9 63 L 464.28999999999996 64.11 L 464.28999999999996 142.7 L 462.9 143.81 Z M 467.08 66.34 L 468.46999999999997 67.87 L 468.46999999999997 139.07 L 467.08 140.32999999999998 Z M 471.26 70.94 L 472.65 72.61 L 472.65 134.2 L 471.26 135.86999999999998 Z M 475.44 76.78999999999999 L 476.83 79.58 L 476.83 127.4 L 475.44 129.77 Z M 479.62 86.13 L 481 91.59 L 481 115.42 L 479.61 121.13 Z" stroke-linecap="round" />
</g>
		<g transform="matrix(1 0 0 1 -250.5 12.34)"  >
<path style="stroke: none; stroke-width: 1; stroke-dasharray: none; stroke-linecap: butt; stroke-dashoffset: 0; stroke-linejoin: miter; stroke-miterlimit: 4; fill: rgb(255,0,144); fill-rule: nonzero; opacity: 1;" vector-effect="non-scaling-stroke"  transform=" translate(-32.19, -216)" d="M 0.14 265 L 0.14 167 L 1.53 167 L 1.53 265 Z M 4.319999999999999 265 L 4.319999999999999 167 L 5.71 167 L 5.71 265 Z M 8.5 265 L 8.5 167 L 9.89 167 L 9.89 265 Z M 12.68 265 L 12.68 167 L 14.07 167 L 14.07 265 Z M 16.86 265 L 16.86 167 L 18.25 167 L 18.25 265 Z M 21 265 L 21 167 L 22.39 167 L 22.39 265 Z M 25.18 265 L 25.18 167 L 26.57 167 L 26.57 265 Z M 29.36 265 L 29.36 167 L 30.75 167 L 30.75 265 Z M 33.54 265 L 33.54 167.37 L 34.93 167.64000000000001 L 34.93 265 Z M 37.72 265 L 37.72 168.3 L 39.11 168.58 L 39.11 265 Z M 41.9 264.44 L 41.9 169.73 L 43.29 170.42999999999998 L 43.29 264.05999999999995 Z M 46.08 263.19 L 46.08 172.1 L 47.47 173.1 L 47.47 262.55 Z M 50.3 261 L 50.3 175.31 L 51.69 176.7 L 51.69 260.15999999999997 Z M 54.48 211.4 L 54.48 180.6 L 55.87 182.69 L 55.87 209.17 Z M 54.48 257.79 L 54.48 213.48 L 55.87 214.88 L 55.87 256.82 Z M 58.66 253.47000000000003 L 58.66 217.94 L 60.05 219.89 L 60.05 251.51999999999998 Z M 62.84 246 L 62.84 225.89 C 63.474070740033746 227.6039949405954 63.939604111617605 229.3757010813714 64.23 231.17999999999998 L 64.23 240.09999999999997 C 63.951478893404115 242.10567441607802 63.486122096504104 244.08092988493422 62.84 246 Z" stroke-linecap="round" />
</g>
		<g transform="matrix(1 0 0 1 -173.39 12.59)"  >
<path style="stroke: none; stroke-width: 1; stroke-dasharray: none; stroke-linecap: butt; stroke-dashoffset: 0; stroke-linejoin: miter; stroke-miterlimit: 4; fill: rgb(255,0,144); fill-rule: nonzero; opacity: 1;" vector-effect="non-scaling-stroke"  transform=" translate(-109.3, -216.25)" d="M 81.36 245.39 L 81.36 167 L 82.76 167 L 82.76 248.6 Z M 85.55 253.2 L 85.55 167 L 86.94 167 L 86.94 255.2 Z M 89.72 258.07 L 89.72 167 L 91.12 167 L 91.12 259.24 Z M 93.9 261 L 93.9 167 L 95.30000000000001 167 L 95.30000000000001 262 Z M 98.09 263.09 L 98.09 167 L 99.48 167 L 99.48 263.83 Z M 102.26 264.61999999999995 L 102.26 167 L 103.66000000000001 167 L 103.66000000000001 265 Z M 106.45 265.4599999999999 L 106.45 167 L 107.84 167 L 107.84 265.51 Z M 110.76 265.4599999999999 L 110.76 167 L 112.16000000000001 167 L 112.16000000000001 265.51 Z M 114.94 265.0399999999999 L 114.94 167 L 116.34 167 L 116.34 264.67 Z M 119.12 263.7799999999999 L 119.12 167 L 120.52000000000001 167 L 120.52000000000001 263.14 Z M 123.3 262 L 123.3 167 L 124.7 167 L 124.7 261 Z M 127.47999999999999 259.22 L 127.47999999999999 167 L 128.88 167 L 128.88 258.12 Z M 131.66 255.22000000000003 L 131.66 167 L 133.06 167 L 133.06 253.2 Z M 135.84 248.67000000000002 L 135.84 167 L 137.24 167 L 137.24 245.44 Z" stroke-linecap="round" />
</g>
		<g transform="matrix(1 0 0 1 -115.78 12.7)"  >
<path style="stroke: none; stroke-width: 1; stroke-dasharray: none; stroke-linecap: butt; stroke-dashoffset: 0; stroke-linejoin: miter; stroke-miterlimit: 4; fill: rgb(255,0,144); fill-rule: nonzero; opacity: 1;" vector-effect="non-scaling-stroke"  transform=" translate(-166.91, -216.37)" d="M 157.44 169 L 157.44 167.6 L 176.39 167.6 L 176.39 169 Z M 157.44 173.18 L 157.44 171.79000000000002 L 176.39 171.79000000000002 L 176.39 173.18 Z M 157.44 177.36 L 157.44 176 L 176.39 176 L 176.39 177.4 Z M 157.44 181.54000000000002 L 157.44 180.14000000000001 L 176.39 180.14000000000001 L 176.39 181.54000000000002 Z M 157.44 185.72000000000003 L 157.44 184.33000000000004 L 176.39 184.33000000000004 L 176.39 185.72000000000003 Z M 157.44 189.90000000000003 L 157.44 188.51000000000005 L 176.39 188.51000000000005 L 176.39 189.90000000000003 Z M 157.44 194.08000000000004 L 157.44 192.69000000000005 L 176.39 192.69000000000005 L 176.39 194.08000000000004 Z M 157.44 198.26000000000005 L 157.44 196.86000000000004 L 176.39 196.86000000000004 L 176.39 198.26000000000005 Z M 157.44 202.44000000000005 L 157.44 201.04000000000005 L 176.39 201.04000000000005 L 176.39 202.44000000000005 Z M 157.44 206.62000000000006 L 157.44 205.22000000000006 L 176.39 205.22000000000006 L 176.39 206.62000000000006 Z M 157.44 210.80000000000007 L 157.44 209.40000000000006 L 176.39 209.40000000000006 L 176.39 210.80000000000007 Z M 157.44 214.98000000000008 L 157.44 213.58000000000007 L 176.39 213.58000000000007 L 176.39 215 Z M 157.44 219.16000000000008 L 157.44 217.76000000000008 L 176.39 217.76000000000008 L 176.39 219.16000000000008 Z M 157.44 223.3400000000001 L 157.44 222 L 176.39 222 L 176.39 223.4 Z M 157.44 227.5200000000001 L 157.44 226.1200000000001 L 176.39 226.1200000000001 L 176.39 227.5200000000001 Z M 157.44 231.7000000000001 L 157.44 230.31000000000012 L 176.39 230.31000000000012 L 176.39 231.7000000000001 Z M 157.44 235.8800000000001 L 157.44 234.49000000000012 L 176.39 234.49000000000012 L 176.39 235.8800000000001 Z M 157.44 240.06000000000012 L 157.44 238.6600000000001 L 176.39 238.6600000000001 L 176.39 240.06000000000012 Z M 157.44 244.24000000000012 L 157.44 242.84000000000012 L 176.39 242.84000000000012 L 176.39 244.24000000000012 Z M 157.44 248.42000000000013 L 157.44 247.02000000000012 L 176.39 247.02000000000012 L 176.39 248.42000000000013 Z M 157.44 252.60000000000014 L 157.44 251.20000000000013 L 176.39 251.20000000000013 L 176.39 252.60000000000014 Z M 157.44 256.78000000000014 L 157.44 255.38000000000014 L 176.39 255.38000000000014 L 176.39 256.78000000000014 Z M 157.44 260.96000000000015 L 157.44 259.5600000000002 L 176.39 259.5600000000002 L 176.39 261 Z M 157.44 265.14000000000016 L 157.44 263.7400000000002 L 176.39 263.7400000000002 L 176.39 265.14000000000016 Z" stroke-linecap="round" />
</g>
		<g transform="matrix(1 0 0 1 -54.33 12.24)"  >
<path style="stroke: none; stroke-width: 1; stroke-dasharray: none; stroke-linecap: butt; stroke-dashoffset: 0; stroke-linejoin: miter; stroke-miterlimit: 4; fill: rgb(255,0,144); fill-rule: nonzero; opacity: 1;" vector-effect="non-scaling-stroke"  transform=" translate(-228.36, -215.91)" d="M 196.31 265 L 196.31 166.81 L 197.7 166.81 L 197.7 265 Z M 200.49 265 L 200.49 166.81 L 201.88 166.81 L 201.88 265 Z M 204.67000000000002 265 L 204.67000000000002 166.81 L 206.06 166.81 L 206.06 265 Z M 208.85000000000002 265 L 208.85000000000002 166.81 L 210.24 166.81 L 210.24 265 Z M 213.03000000000003 265 L 213.03000000000003 166.81 L 214.42000000000002 166.81 L 214.42000000000002 265 Z M 217.21000000000004 265 L 217.21000000000004 166.81 L 218.60000000000002 166.81 L 218.60000000000002 265 Z M 221.39000000000004 265 L 221.39000000000004 166.81 L 222.78000000000003 166.81 L 222.78000000000003 265 Z M 225.57000000000005 265 L 225.57000000000005 166.81 L 227 166.81 L 227 265 Z M 229.75000000000006 265 L 229.75000000000006 166.81 L 231.14000000000004 166.81 L 231.14000000000004 265 Z M 233.93000000000006 265 L 233.93000000000006 166.81 L 235.32000000000005 166.81 L 235.32000000000005 265 Z M 238.11000000000007 265 L 238.11000000000007 166.81 L 239.50000000000006 166.81 L 239.50000000000006 265 Z M 243.68000000000006 265 L 242.29000000000008 265 L 242.29000000000008 245.81 L 243.68000000000006 245.81 Z M 247.86000000000007 265 L 246.47000000000008 265 L 246.47000000000008 245.81 L 247.86000000000007 245.81 Z M 252.04000000000008 265 L 250.6500000000001 265 L 250.6500000000001 245.81 L 252 245.81 Z M 256.2200000000001 265 L 254.8300000000001 265 L 254.8300000000001 245.81 L 256.2200000000001 245.81 Z M 260.4000000000001 265 L 259 265 L 259 245.81 L 260.39 245.81 Z" stroke-linecap="round" />
</g>
		<g transform="matrix(1 0 0 1 21.74 12.26)"  >
<path style="stroke: none; stroke-width: 1; stroke-dasharray: none; stroke-linecap: butt; stroke-dashoffset: 0; stroke-linejoin: miter; stroke-miterlimit: 4; fill: rgb(255,0,144); fill-rule: nonzero; opacity: 1;" vector-effect="non-scaling-stroke"  transform=" translate(-304.43, -215.93)" d="M 274.47 166.53 L 275.86 166.53 L 275.86 265.32 L 274.47 265.32 Z M 278.65000000000003 166.53 L 280 166.53 L 280 265.32 L 278.61 265.32 Z M 282.83000000000004 166.53 L 284.22 166.53 L 284.22 265.32 L 282.83000000000004 265.32 Z M 287.01000000000005 166.53 L 288.40000000000003 166.53 L 288.40000000000003 265.32 L 287 265.32 Z M 291.19000000000005 166.67 L 292.58000000000004 166.67 L 292.58000000000004 265 L 291.19000000000005 265.14 Z M 295.37000000000006 166.95 L 296.76000000000005 167.23 L 296.76000000000005 264.34 L 295.37000000000006 264.61999999999995 Z M 299.55000000000007 167.78 L 300.94000000000005 168.2 L 300.94000000000005 263.51 L 299.55000000000007 263.92 Z M 303.7300000000001 168.9 L 305.12000000000006 169.46 L 305.12000000000006 262.25 L 303.7300000000001 262.67 Z M 307.9100000000001 170.57 L 309.30000000000007 171.26999999999998 L 309.30000000000007 260.44 L 307.9100000000001 261.14 Z M 312.0900000000001 172.66 L 313.4800000000001 173.66 L 313.4800000000001 258.23 L 312.0900000000001 259.07 Z M 316.2700000000001 175.45 L 317.6600000000001 176.56 L 317.6600000000001 255.15 L 316.2700000000001 256.26 Z M 320.4500000000001 178.79 L 321.8400000000001 180.32 L 321.8400000000001 251.51999999999998 L 320.4500000000001 252.77999999999997 Z M 324.6300000000001 183.39 L 326.0200000000001 185.05999999999997 L 326.0200000000001 246.64999999999998 L 324.6300000000001 248.31999999999996 Z M 328.8100000000001 189.23999999999998 L 330.2 192 L 330.2 239.79 L 328.81 242.16 Z M 332.9900000000001 198.57999999999998 L 334.3800000000001 204.01 L 334.3800000000001 227.83999999999997 L 333 233.55 Z" stroke-linecap="round" />
</g>
		<g transform="matrix(1 0 0 1 99.55 12.25)"  >
<path style="stroke: none; stroke-width: 1; stroke-dasharray: none; stroke-linecap: butt; stroke-dashoffset: 0; stroke-linejoin: miter; stroke-miterlimit: 4; fill: rgb(255,0,144); fill-rule: nonzero; opacity: 1;" vector-effect="non-scaling-stroke"  transform=" translate(-382.24, -215.92)" d="M 350.12 169.6 L 350.12 168.2 L 414.35 168.2 L 414.35 169.6 Z M 350.12 173.35999999999999 L 350.12 172 L 414.35 172 L 414.35 173.4 Z M 350.12 177.54 L 350.12 176.14 L 414.35 176.14 L 414.35 177.54 Z M 350.12 181.72 L 350.12 180.32 L 414.35 180.32 L 414.35 181.72 Z M 350.12 185.9 L 350.12 184.5 L 414.35 184.5 L 414.35 185.9 Z M 350.12 190.5 L 350.12 189.1 L 390.25 189.1 L 390.25 190.5 Z M 350.12 194.68 L 350.12 193.28 L 390.25 193.28 L 390.25 194.68 Z M 350.12 198.86 L 350.12 197.46 L 390.25 197.46 L 390.25 198.86 Z M 350.12 203.04000000000002 L 350.12 201.64000000000001 L 390.25 201.64000000000001 L 390.25 203 Z M 350.12 208.19000000000003 L 350.12 206.8 L 390.25 206.8 L 390.25 208.19 Z M 350.12 212.37000000000003 L 350.12 211 L 390.25 211 L 390.25 212.39 Z M 350.12 216.55000000000004 L 350.12 215.16000000000005 L 390.25 215.16000000000005 L 390.25 216.55000000000004 Z M 350.12 220.73000000000005 L 350.12 219.34000000000006 L 390.25 219.34000000000006 L 390.25 220.73000000000005 Z M 350.12 224.91000000000005 L 350.12 223.52000000000007 L 390.25 223.52000000000007 L 390.25 224.91000000000005 Z M 350.12 230.21000000000006 L 350.12 228.81000000000006 L 390.25 228.81000000000006 L 390.25 230.21000000000006 Z M 350.12 234.39000000000007 L 350.12 233 L 390.25 233 L 390.25 234.4 Z M 350.12 238.57000000000008 L 350.12 237.17000000000007 L 390.25 237.17000000000007 L 390.25 238.57000000000008 Z M 350.12 242.75000000000009 L 350.12 241.35000000000008 L 390.25 241.35000000000008 L 390.25 242.75000000000009 Z M 350.12 247.3400000000001 L 350.12 246 L 414.21000000000004 246 L 414.21000000000004 247.39 Z M 350.12 251.1100000000001 L 350.12 249.7100000000001 L 414.21000000000004 249.7100000000001 L 414.21000000000004 251.1100000000001 Z M 350.12 255.2900000000001 L 350.12 253.8900000000001 L 414.21000000000004 253.8900000000001 L 414.21000000000004 255.2900000000001 Z M 350.12 259.4600000000001 L 350.12 258.0700000000001 L 414.21000000000004 258.0700000000001 L 414.21000000000004 259.4600000000001 Z M 350.12 263.6400000000001 L 350.12 262.2500000000001 L 414.21000000000004 262.2500000000001 L 414.21000000000004 263.6400000000001 Z" stroke-linecap="round" />
</g>
		<g transform="matrix(1 0 0 1 182.22 12.36)"  >
<path style="stroke: none; stroke-width: 1; stroke-dasharray: none; stroke-linecap: butt; stroke-dashoffset: 0; stroke-linejoin: miter; stroke-miterlimit: 4; fill: rgb(255,0,144); fill-rule: nonzero; opacity: 1;" vector-effect="non-scaling-stroke"  transform=" translate(-464.9, -216.02)" d="M 432.88 265 L 432.88 167 L 434.27 167 L 434.27 265 Z M 437.06 265 L 437.06 167 L 438.45 167 L 438.45 265 Z M 441.24 265 L 441.24 167 L 442.63 167 L 442.63 265 Z M 445.41 265 L 445.41 167 L 446.81 167 L 446.81 265 Z M 449.6 265 L 449.6 167 L 451 167 L 451 265 Z M 453.78000000000003 265 L 453.78000000000003 167 L 455.17 167 L 455.17 265 Z M 457.96000000000004 265 L 457.96000000000004 167 L 459.35 167 L 459.35 265 Z M 462.14000000000004 225.29 L 462.14000000000004 167 L 463.53000000000003 167 L 463.53000000000003 225.38 Z M 462.14000000000004 265 L 462.14000000000004 228.26 L 463.53000000000003 229.64999999999998 L 463.53000000000003 265 Z M 466.31000000000006 225 L 466.31000000000006 167.37 L 467.71000000000004 167.64000000000001 L 467.71000000000004 224.77 Z M 466.31000000000006 265 L 466.31000000000006 232.4 L 467.71000000000004 233.79 L 467.71000000000004 265 Z M 470.50000000000006 224.17000000000002 L 470.50000000000006 168.34 L 471.89000000000004 168.62 L 471.89000000000004 223.8 Z M 470.50000000000006 265 L 470.50000000000006 236.62 L 471.89000000000004 238.01 L 471.89000000000004 265.01 Z M 474.68000000000006 222.5 L 474.68000000000006 169.73 L 476.07000000000005 170.42999999999998 L 476.07000000000005 222 Z M 474.68000000000006 265 L 474.68000000000006 240.79 L 476.07000000000005 242.19 L 476.07000000000005 265 Z M 478.86000000000007 220.27 L 478.86000000000007 172.1 L 480.25000000000006 173.1 L 480.25000000000006 219.35999999999999 Z M 478.86000000000007 265 L 478.86000000000007 245 L 480.25000000000006 246.4 L 480.25000000000006 265 Z M 483 216.83 L 483 175.31 L 484.39 176.7 L 484.39 215.44 Z M 483 265 L 483 249.15 L 484.39 250.55 L 484.39 265 Z M 487.17 211.36 L 487.17 180.6 L 488.57 182.69 L 488.57 209.17 Z M 487.17 265 L 487.17 253.33 L 488.57 254.73000000000002 L 488.57 265 Z M 491.35 265 L 491.35 257.47 L 492.75 258.87 L 492.75 265 Z M 495.54 265 L 495.54 261.65 L 496.93 263.04999999999995 L 496.93 265.04999999999995 Z" stroke-linecap="round" />
</g>
		<g transform="matrix(1 0 0 1 252.73 12.25)"  >
<path style="stroke: none; stroke-width: 1; stroke-dasharray: none; stroke-linecap: butt; stroke-dashoffset: 0; stroke-linejoin: miter; stroke-miterlimit: 4; fill: rgb(255,0,144); fill-rule: nonzero; opacity: 1;" vector-effect="non-scaling-stroke"  transform=" translate(-535.42, -215.91)" d="M 506.86 187 L 506.86 204.84 L 505.46000000000004 199.54 L 505.46000000000004 192.85 Z M 511.04 178.92 L 511.04 213.06 L 509.64000000000004 211.25 L 509.64000000000004 180.88 Z M 515.22 174.6 L 515.22 217.93 L 513.82 216.54000000000002 L 513.82 175.54000000000002 Z M 519.4 171.4 L 519.4 221.14000000000001 L 518 220.14000000000001 L 518 172.24 Z M 523.5799999999999 169.31 L 523.5799999999999 223.37 L 522.18 222.53 L 522.18 170 Z M 527.7599999999999 168.05 L 527.7599999999999 224.62 L 526.3599999999999 224.20000000000002 L 526.3599999999999 168.48 Z M 531.9399999999998 167.5 L 531.9399999999998 225.5 L 530.5399999999998 225.22 L 530.5399999999998 167.51 Z M 534.7199999999998 264.75 L 534.7199999999998 167 L 536.1199999999998 167 L 536.1199999999998 264.81 Z M 538.8999999999997 264.47 L 538.8999999999997 206.37000000000003 L 540.2999999999997 206.65000000000003 L 540.2999999999997 264.47 Z M 543.0799999999997 263.91 L 543.0799999999997 207.21000000000004 L 544.4799999999997 207.62000000000003 L 544.4799999999997 263.50000000000006 Z M 547.2599999999996 262.66 L 547.2599999999996 208.46000000000004 L 548.6599999999996 209.30000000000004 L 548.6599999999996 262 Z M 551.4399999999996 260.43 L 551.4399999999996 210.7 L 552.8399999999996 211.7 L 552.8399999999996 259.6 Z M 555.6199999999995 257.23 L 555.6199999999995 213.76 L 557.0199999999995 215.16 L 557.0199999999995 256.26 Z M 559.7999999999995 252.91000000000003 L 559.7999999999995 218.64 L 561.1999999999995 220.64 L 561.1999999999995 251 Z M 563.9799999999994 244.83 L 563.9799999999994 227 L 565.3799999999994 232.3 L 565.3799999999994 239 Z" stroke-linecap="round" />
</g>
		<g transform="matrix(1 0 0 1 -167.69 -100.09)"  >
<path style="stroke: none; stroke-width: 1; stroke-dasharray: none; stroke-linecap: butt; stroke-dashoffset: 0; stroke-linejoin: miter; stroke-miterlimit: 4; fill: rgb(35,31,32); fill-rule: nonzero; opacity: 1;" vector-effect="non-scaling-stroke"  transform=" translate(-115, -103.57)" d="M 122.53 152.76 L 82.53 152.76 L 82.53 133.39 L 118.34 133.39 C 123.77000000000001 133.39 127.81 128.51 127.81 123.21999999999998 C 127.86356493533515 120.62939253276232 126.87733733306275 118.1252487636232 125.071604745999 116.26690378068245 C 123.26587215893524 114.40855879774172 120.79107738177204 113.35083874454806 118.2 113.32999999999998 L 102.74 113.32999999999998 L 102.74 93.4 L 112.08 93.4 C 114.74958329796756 93.47006738306968 117.33445692352734 92.4597499831451 119.2489585225151 90.59795835935073 C 121.16346012150285 88.73616673555634 122.24552984474072 86.18049891231388 122.25 83.51 C 122.25 78.35000000000001 118.25 73.75 112.92 73.75 L 82.54 73.75 L 82.54 54.39 L 112.08000000000001 54.39 C 128.38000000000002 54.39 141.9 66.93 141.9 83.51 C 141.9049158356783 89.47607971563163 140.10625302904978 95.30430493400932 136.74 100.22999999999999 C 143.50880821732375 105.95804546954493 147.42985043537126 114.36288899378475 147.47 123.22999999999999 C 147.47510109456908 137.83993462728117 136.93476516598398 150.32013189957942 122.53 152.76 Z" stroke-linecap="round" />
</g>
		<g transform="matrix(1 0 0 1 -85.77 -100.09)"  >
<path style="stroke: none; stroke-width: 1; stroke-dasharray: none; stroke-linecap: butt; stroke-dashoffset: 0; stroke-linejoin: miter; stroke-miterlimit: 4; fill: rgb(35,31,32); fill-rule: nonzero; opacity: 1;" vector-effect="non-scaling-stroke"  transform=" translate(-196.91, -103.57)" d="M 202.92 152.76 L 163.48999999999998 113.32999999999998 L 163.48999999999998 93.4 L 193 93.4 C 195.6625299835714 93.44542647398933 198.23321523169494 92.42702693714529 200.14227896421286 90.57052346471636 C 202.05134269673076 88.71401999228743 203.14109539907275 86.17276059795114 203.17 83.51 C 203.25420093036382 78.24808730296168 199.09052776030435 73.89718257707511 193.82999999999998 73.75 L 163.49 73.75 L 163.49 54.39 L 193 54.39 C 209.3 54.39 222.81 66.93 222.81 83.51 C 222.79347367447406 99.96837773910386 209.45837127041077 113.30795350861635 193 113.33 L 190.91 113.33 L 230.34 152.76 Z" stroke-linecap="round" />
</g>
		<g transform="matrix(1 0 0 1 0.48 -102.88)"  >
<path style="stroke: none; stroke-width: 1; stroke-dasharray: none; stroke-linecap: butt; stroke-dashoffset: 0; stroke-linejoin: miter; stroke-miterlimit: 4; fill: rgb(35,31,32); fill-rule: nonzero; opacity: 1;" vector-effect="non-scaling-stroke"  transform=" translate(-283.17, -100.78)" d="M 313.13 152.62 L 283.45 93.26 L 253.45 152.62 L 231.62 152.62 L 283.17 49.37 C 283.17 49.23 283.31 49.089999999999996 283.31 48.949999999999996 L 334.72 152.62 Z" stroke-linecap="round" />
</g>
		<g transform="matrix(1 0 0 1 90.2 -100.09)"  >
<path style="stroke: none; stroke-width: 1; stroke-dasharray: none; stroke-linecap: butt; stroke-dashoffset: 0; stroke-linejoin: miter; stroke-miterlimit: 4; fill: rgb(35,31,32); fill-rule: nonzero; opacity: 1;" vector-effect="non-scaling-stroke"  transform=" translate(-372.89, -103.57)" d="M 344.47 54.39 L 366.9 54.39 L 401.32 114.58 L 401.32 152.76 Z" stroke-linecap="round" />
</g>
		<g transform="matrix(1 0 0 1 169.06 -100.07)"  >
<path style="stroke: none; stroke-width: 1; stroke-dasharray: none; stroke-linecap: butt; stroke-dashoffset: 0; stroke-linejoin: miter; stroke-miterlimit: 4; fill: rgb(35,31,32); fill-rule: nonzero; opacity: 1;" vector-effect="non-scaling-stroke"  transform=" translate(-451.75, -103.59)" d="M 482.68 103.57 C 482.68 131.85999999999999 462.2 153.18 433.77 153.18 C 429.45 153.18 425.14 153.04000000000002 420.82 153.04000000000002 L 420.82 133.53 L 432.65999999999997 133.53 C 449.93999999999994 133.53 463.45 120.85 463.45 103.43 C 463.45 86.01000000000002 450.63 73.34 433.36 73.34 L 420.82 73.34 L 420.82 54 L 435.31 54 C 463.31 54 482.68 76.13 482.68 103.57 Z" stroke-linecap="round" />
</g>
		<g transform="matrix(1 0 0 1 -250.22 12.34)"  >
<path style="stroke: none; stroke-width: 1; stroke-dasharray: none; stroke-linecap: butt; stroke-dashoffset: 0; stroke-linejoin: miter; stroke-miterlimit: 4; fill: rgb(35,31,32); fill-rule: nonzero; opacity: 1;" vector-effect="non-scaling-stroke"  transform=" translate(-32.47, -216)" d="M 40 265.18 L 0 265.18 L 0 245.81 L 35.81 245.81 C 41.24 245.81 45.28 240.93 45.28 235.64000000000001 C 45.33356493533515 233.04939253276234 44.347337333062754 230.54524876362322 42.541604745999 228.68690378068248 C 40.735872158935244 226.82855879774172 38.26107738177205 225.7708387445481 35.67 225.75 L 20.2 225.75 L 20.2 205.82 L 29.54 205.82 C 32.209583297967555 205.89006738306966 34.794456923527335 204.8797499831451 36.70895852251509 203.0179583593507 C 38.623460121502845 201.15616673555633 39.70552984474072 198.60049891231387 39.71 195.93 C 39.79411246269268 190.66981817413793 35.62894266467127 186.32180901667448 30.370000000000005 186.18 L 0 186.18 L 0 166.81 L 29.54 166.81 C 45.84 166.81 59.36 179.35 59.36 195.93 C 59.36055815924412 201.89542361198465 57.562283487046535 207.72239115445433 54.20000000000001 212.64999999999998 C 60.96880821732373 218.37804546954493 64.88985043537127 226.78288899378475 64.93 235.65 C 64.9359271226511 250.25674172909532 54.40079027118975 262.73578670397114 39.99999999999999 265.18 Z" stroke-linecap="round" />
</g>
		<g transform="matrix(1 0 0 1 -173.39 12.68)"  >
<path style="stroke: none; stroke-width: 1; stroke-dasharray: none; stroke-linecap: butt; stroke-dashoffset: 0; stroke-linejoin: miter; stroke-miterlimit: 4; fill: rgb(35,31,32); fill-rule: nonzero; opacity: 1;" vector-effect="non-scaling-stroke"  transform=" translate(-109.3, -216.34)" d="M 109.37 265.88 C 93.21000000000001 265.88 79.55000000000001 252.64 79.55000000000001 236.34 L 79.55000000000001 166.81 L 98.92 166.81 L 98.92 236.48000000000002 C 98.92 242.05 104.08 246.23000000000002 109.37 246.23000000000002 C 114.97310701754014 246.19723245346225 119.50723245346224 241.66310701754017 119.54 236.06000000000003 L 119.68 236.06000000000003 L 119.68 166.81 L 139.05 166.81 L 139.05 236.06 C 139.0712427206783 243.95100422391397 135.95554437963557 251.5269607864797 130.3888859215613 257.1198770674694 C 124.822227463487 262.7127933484592 117.26101681514743 265.86410855352756 109.37000000000002 265.88 Z" stroke-linecap="round" />
</g>
		<g transform="matrix(1 0 0 1 -115.85 12.34)"  >
<path style="stroke: none; stroke-width: 1; stroke-dasharray: none; stroke-linecap: butt; stroke-dashoffset: 0; stroke-linejoin: miter; stroke-miterlimit: 4; fill: rgb(35,31,32); fill-rule: nonzero; opacity: 1;" vector-effect="non-scaling-stroke"  transform=" translate(-166.84, -216)" d="M 157.16 265.18 L 157.16 166.81 L 176.51999999999998 166.81 L 176.51999999999998 265.18 Z" stroke-linecap="round" />
</g>
		<g transform="matrix(1 0 0 1 -53.81 51.77)"  >
<path style="stroke: none; stroke-width: 1; stroke-dasharray: none; stroke-linecap: butt; stroke-dashoffset: 0; stroke-linejoin: miter; stroke-miterlimit: 4; fill: rgb(35,31,32); fill-rule: nonzero; opacity: 1;" vector-effect="non-scaling-stroke"  transform=" translate(-228.88, -255.43)" d="M 196 265.18 L 196 245.67 L 261.76 245.67 L 261.76 265.18 Z" stroke-linecap="round" />
</g>
		<g transform="matrix(1 0 0 1 22.57 12.33)"  >
<path style="stroke: none; stroke-width: 1; stroke-dasharray: none; stroke-linecap: butt; stroke-dashoffset: 0; stroke-linejoin: miter; stroke-miterlimit: 4; fill: rgb(35,31,32); fill-rule: nonzero; opacity: 1;" vector-effect="non-scaling-stroke"  transform=" translate(-305.26, -216)" d="M 336.19 216 C 336.19 244.29 315.71 265.61 287.28 265.61 C 282.96999999999997 265.61 278.65 265.47 274.33 265.47 L 274.33 246 L 286.16999999999996 246 C 303.44999999999993 246 316.96 233.32 316.96 215.91 C 316.96 198.5 304.14 185.81 286.87 185.81 L 274.33 185.81 L 274.33 166.39 L 288.82 166.39 C 316.82 166.39 336.19 188.55 336.19 216 Z" stroke-linecap="round" />
</g>
		<g transform="matrix(1 0 0 1 99.48 12.34)"  >
<path style="stroke: none; stroke-width: 1; stroke-dasharray: none; stroke-linecap: butt; stroke-dashoffset: 0; stroke-linejoin: miter; stroke-miterlimit: 4; fill: rgb(35,31,32); fill-rule: nonzero; opacity: 1;" vector-effect="non-scaling-stroke"  transform=" translate(-382.16, -216)" d="M 349.84 186.32 L 349.84 166.81 L 414.49 166.81 L 414.49 186.32 Z M 349.84 225.75 L 349.84 205.82 L 390.25 205.82 L 390.25 225.75 Z M 349.84 265.18 L 349.84 245.67 L 414.21 245.67 L 414.21 265.18 Z" stroke-linecap="round" />
</g>
		<g transform="matrix(1 0 0 1 183.35 12.34)"  >
<path style="stroke: none; stroke-width: 1; stroke-dasharray: none; stroke-linecap: butt; stroke-dashoffset: 0; stroke-linejoin: miter; stroke-miterlimit: 4; fill: rgb(35,31,32); fill-rule: nonzero; opacity: 1;" vector-effect="non-scaling-stroke"  transform=" translate(-466.04, -216)" d="M 472 265.18 L 432.6 225.75 L 432.6 205.82 L 462.14000000000004 205.82 C 464.80252998357145 205.86542647398932 467.373215231695 204.84702693714527 469.28227896421294 202.99052346471638 C 471.1913426967308 201.13401999228745 472.2810953990728 198.59276059795116 472.31000000000006 195.93 C 472.39411246269276 190.66981817413796 468.22894266467137 186.32180901667448 462.9700000000001 186.18 L 432.6 186.18 L 432.6 166.81 L 462.14000000000004 166.81 C 478.44000000000005 166.81 491.95000000000005 179.35 491.95000000000005 195.93 C 491.9334736744741 212.38837773910384 478.5983712704108 225.72795350861637 462.14000000000004 225.75 L 460.05000000000007 225.75 L 499.4800000000001 265.18 Z" stroke-linecap="round" />
</g>
		<g transform="matrix(1 0 0 1 252.49 12.47)"  >
<path style="stroke: none; stroke-width: 1; stroke-dasharray: none; stroke-linecap: butt; stroke-dashoffset: 0; stroke-linejoin: miter; stroke-miterlimit: 4; fill: rgb(35,31,32); fill-rule: nonzero; opacity: 1;" vector-effect="non-scaling-stroke"  transform=" translate(-535.17, -216.13)" d="M 536.12 265.46 L 534.44 265.46 L 534.44 245.81 C 540.44 245.81 545.73 241.91 545.73 235.64000000000001 C 545.73 229.79000000000002 540.99 226.17000000000002 535.5600000000001 225.89000000000001 C 532.1695140306147 225.75051767183172 528.8099328508672 225.18610803363413 525.5600000000001 224.21 C 513.2271396229766 220.3273921404665 504.86537558012753 208.85936657636512 504.94000000000005 195.93 C 504.94000000000005 178.10000000000002 519.0100000000001 166.81 536.1500000000001 166.81 L 536.1500000000001 186.18 L 535.3100000000001 186.18 C 529.6 185.9 524.58 189.94 524.58 195.93 C 524.58 201.92000000000002 530.1600000000001 205.68 535.73 205.93 C 538.6045676035568 205.99651820662942 541.4597492630371 206.4197568996818 544.23 207.19 C 556.7609450787523 210.99006868627984 565.3503952754543 222.51566710886104 565.41 235.61 C 565.38 251.66 552.28 265.46 536.12 265.46 Z" stroke-linecap="round" />
</g>
</g>
</g>
</svg>