<svg xmlns="http://www.w3.org/2000/svg" viewBox="0 0 707.97 153.11"><title>main-logo2-fix</title><g id="Layer_2" data-name="Layer 2"><g id="Layer_1-2" data-name="Layer 1"><rect x="30.89" y="49.63" width="162.68" height="53.85" transform="translate(245.72 51.33) rotate(135)" style="fill:#fff"></rect><rect x="30.89" y="49.63" width="162.68" height="53.85" transform="translate(137.45 210.05) rotate(-135)" style="fill:#fff"></rect><path d="M596.67,68.88a10,10,0,0,0-6.54-2.18c-2.26,0-4.59.81-4.59,3s2.92,2.38,5.78,2.54c3.08.21,8,.51,8,5.24,0,4.1-3.65,5.75-7.89,5.75a13.13,13.13,0,0,1-9.26-3.62L583.65,78a11.16,11.16,0,0,0,7.89,3.24c3,0,5.48-1.08,5.48-3.46,0-2.64-2.7-3.05-5.7-3.26-3.8-.25-8.12-.52-8.12-4.59s3.86-5.24,7-5.24a12.94,12.94,0,0,1,7.86,2.56Z" style="fill:#241f20"></path><path d="M621.42,65.16V76.52c0,4.3-3.32,6.73-7.77,6.73s-7.72-2.43-7.72-6.73V65.16h2.32V76.52c0,3,2.37,4.65,5.4,4.65s5.42-1.65,5.42-4.65V65.16Z" style="fill:#241f20"></path><path d="M645.5,82.79V69.42h-.13L639,80.14h-.49l-6.37-10.72H632V82.79h-2.24V65.16h2.49l6.58,11.09h.06l6.59-11.09h2.37V82.79Z" style="fill:#241f20"></path><path d="M672.28,82.79V69.42h-.13l-6.37,10.72h-.49l-6.37-10.72h-.14V82.79h-2.24V65.16H659l6.58,11.09h.06l6.59-11.09h2.37V82.79Z" style="fill:#241f20"></path><path d="M683.32,82.79V65.16h2.35V82.79Z" style="fill:#241f20"></path><path d="M691.93,65.16h16v2.08h-6.83V82.79h-2.35V67.24h-6.86Z" style="fill:#241f20"></path><path d="M249.26,102.51V48.21H250v54.3Zm2.31,0V48.21h.77v54.3Zm2.31,0V48.21h.78v54.3Zm2.32,0V48.21H257v54.3Zm2.31,0V48.21h.77v54.3Zm2.32,0V48.21h.77v54.3Zm2.31,0V48.21h.77v54.3Zm2.31,0V48.21h.78v54.3Zm2.32,0V48.44l.77.15v53.92Zm2.31,0V49l.77.16v53.37Zm2.32-.31V49.75l.77.39V102Zm2.31-.69V51.06l.77.54v49.53Zm2.31-1.23V52.84l.78.77v46.2Zm2.32-27.46v-17l.77,1.16V71.58Zm0,25.68V74l.77.77V98Zm2.31-2.39V76.44l.77,1.08V95ZM284,92V80.84a15.49,15.49,0,0,1,.77,2.93v4.94A18.41,18.41,0,0,1,284,92Z" style="fill:#ff0090"></path><path d="M294.22,91.64V48.21H295v45.2ZM296.54,96V48.21h.77V97Zm2.31,2.7V48.21h.77V99.27Zm2.32,1.62V48.21h.77v52.61Zm2.31,1.15V48.21h.77v53.61Zm2.31.85V48.21h.77v54.3Zm2.32.46V48.21h.77v54.53Zm2.39,0V48.21h.77v54.53Zm2.31-.23V48.21h.77v54.07Zm2.32-.69V48.21h.77v53.22Zm2.31-1V48.21h.77v52.07Zm2.31-1.55V48.21h.78V98.66ZM322.07,97V48.21h.77V96Zm2.31-3.63V48.21h.77V91.64Z" style="fill:#ff0090"></path><path d="M336.34,49.37v-.78h10.49v.78Zm0,2.31v-.77h10.49v.77Zm0,2.31v-.77h10.49V54Zm0,2.32v-.77h10.49v.77Zm0,2.31v-.77h10.49v.77Zm0,2.32v-.77h10.49v.77Zm0,2.31v-.77h10.49v.77Zm0,2.32v-.78h10.49v.78Zm0,2.31v-.77h10.49v.77Zm0,2.31v-.77h10.49v.77Zm0,2.32v-.77h10.49v.77Zm0,2.31v-.77h10.49v.77Zm0,2.32v-.78h10.49v.78Zm0,2.31v-.77h10.49v.77Zm0,2.31V81h10.49v.77Zm0,2.32v-.77h10.49v.77Zm0,2.31v-.77h10.49v.77Zm0,2.32v-.78h10.49v.78Zm0,2.31v-.77h10.49V91Zm0,2.31v-.77h10.49v.77Zm0,2.32v-.77h10.49v.77Zm0,2.31v-.77h10.49V98Zm0,2.32V99.5h10.49v.78Zm0,2.31v-.77h10.49v.77Z" style="fill:#ff0090"></path><path d="M357.85,102.51V48.13h.78v54.38Zm2.32,0V48.13h.77v54.38Zm2.31,0V48.13h.77v54.38Zm2.32,0V48.13h.77v54.38Zm2.31,0V48.13h.77v54.38Zm2.32,0V48.13h.77v54.38Zm2.31,0V48.13h.77v54.38Zm2.31,0V48.13h.77v54.38Zm2.32,0V48.13h.77v54.38Zm2.31,0V48.13h.77v54.38Zm2.32,0V48.13h.77v54.38Zm3.08,0h-.77V91.87h.77Zm2.31,0h-.77V91.87h.77Zm2.32,0h-.77V91.87h.77Zm2.31,0h-.77V91.87H391Zm2.32,0h-.77V91.87h.77Z" style="fill:#ff0090"></path><path d="M401.13,48h.77v54.69h-.77Zm2.31,0h.77v54.69h-.77Zm2.31,0h.77v54.69h-.77Zm2.32,0h.77v54.69h-.77Zm2.31.08h.77v54.45l-.77.08Zm2.32.15.77.15v53.77l-.77.15Zm2.31.46.77.23v52.76l-.77.24Zm2.31.62.77.31V101l-.77.23Zm2.32.92.77.39V100l-.77.38ZM422,51.37l.77.54V98.73l-.77.47Zm2.32,1.55.77.61V97l-.77.61Zm2.31,1.85.77.84V95l-.77.7Zm2.31,2.54.78.93V92.33l-.78.93Zm2.32,3.24.77,1.54V88.55l-.77,1.31Zm2.31,5.17.77,3V81.92l-.77,3.16Z" style="fill:#ff0090"></path><path d="M443,49.67V48.9h35.56v.77Zm0,2.09V51h35.56v.77Zm0,2.31V53.3h35.56v.77Zm0,2.32v-.78h35.56v.78Zm0,2.31v-.77h35.56v.77Zm0,2.55v-.78h22.21v.78Zm0,2.31v-.77h22.21v.77Zm0,2.31V65.1h22.21v.77Zm0,2.32v-.77h22.21v.77ZM443,71v-.77h22.21V71Zm0,2.32v-.78h22.21v.78Zm0,2.31V74.9h22.21v.77ZM443,78v-.77h22.21V78Zm0,2.32v-.77h22.21v.77Zm0,2.93v-.77h22.21v.77Zm0,2.31v-.77h22.21v.77Zm0,2.32v-.77h22.21v.77Zm0,2.31V89.4h22.21v.77Zm0,2.55V92h35.48v.77Zm0,2.08V94h35.48v.77Zm0,2.31v-.77h35.48v.77Zm0,2.32v-.77h35.48v.77Zm0,2.31V101h35.48v.77Z" style="fill:#ff0090"></path><path d="M488.82,102.51V48.21h.77v54.3Zm2.31,0V48.21h.78v54.3Zm2.32,0V48.21h.77v54.3Zm2.31,0V48.21h.77v54.3Zm2.32,0V48.21h.77v54.3Zm2.31,0V48.21h.77v54.3Zm2.32,0V48.21h.77v54.3Zm2.31-22V48.21h.77V80.53Zm0,22V82.15l.77.77v19.59Zm2.31-22.13V48.44l.77.15V80.22Zm0,22.13V84.46l.77.77v17.28Zm2.32-22.6V49l.77.16V79.68Zm0,22.6V86.78l.77.77v15ZM512,79V49.75l.77.39V78.68Zm0,23.52V89.09l.77.77v12.65Zm2.32-24.76V51.06l.77.54V77.21Zm0,24.76V91.41l.77.77v10.33Zm2.31-26.69v-23l.77.77V75.05Zm0,26.69V93.72l.77.77v8Zm2.31-29.69v-17l.77,1.16V71.58Zm0,29.69V96l.77.77v5.71Zm2.32,0V98.35l.77.77v3.39Zm2.31,0v-1.85l.77.77v1.08Z" style="fill:#ff0090"></path><path d="M529.78,59.32v9.87L529,66.26v-3.7Zm2.31-4.48v18.9l-.77-1V55.92Zm2.32-2.39v24l-.78-.77V53Zm2.31-1.77V78.21l-.77-.53V51.14ZM539,49.52V79.45l-.77-.46V49.91Zm2.32-.69V80.14l-.77-.23V49.06Zm2.31-.31V80.61l-.77-.16V48.52Zm1.54,53.84V48.21H546v54.15Zm2.32-.16V70l.77.15v32Zm2.31-.3V70.5l.77.23v30.93Zm2.32-.7v-30l.77.46v29.16Zm2.31-1.23V72.43l.77.54V99.5Zm2.31-1.78V74.13l.78.77V97.65Zm2.32-2.39v-19l.77,1.08V94.72Zm2.31-4.47V81.46l.77,2.93v3.7Z" style="fill:#ff0090"></path><path d="M.08,102.28V48H.85v54.3Zm2.31,0V48h.77v54.3Zm2.32,0V48h.77v54.3Zm2.31,0V48h.77v54.3Zm2.31,0V48h.77v54.3Zm2.32,0V48h.77v54.3Zm2.31,0V48h.77v54.3Zm2.32,0V48h.77v54.3Zm2.31,0V48.21l.77.15v53.92Zm2.31,0V48.75l.77.15v53.38Zm2.32-.31V49.52l.77.39v51.83Zm2.31-.69V50.83l.77.54v49.52ZM27.85,100V52.61l.77.77v46.2Zm2.31-27.46v-17l.77,1.15V71.35Zm0,25.69V73.74l.77.77V97.73Zm2.31-2.39V76.21l.78,1.08V94.8Zm2.32-4.17V80.61a15.49,15.49,0,0,1,.77,2.93v4.93A18.16,18.16,0,0,1,34.79,91.71Z" style="fill:#ff0090"></path><path d="M44.89,102.28V48h.77v54.3Zm2.31,0V48H48v54.3Zm2.32,0V48h.77v54.3Zm2.31,0V48h.77v54.3Zm2.32,0V48h.77v54.3Zm2.31,0V48h.77v54.3Zm2.31,0V48h.78v54.3Zm2.32-22V48h.77V80.3Zm0,22V81.92l.77.77v19.59ZM63.4,80.14V48.21l.77.15V80Zm0,22.14v-18l.77.77v17.28Zm2.32-22.6V48.75l.77.15V79.45Zm0,22.6V86.55l.77.77v15ZM68,78.75V49.52l.77.39V78.45Zm0,23.53V88.86l.77.77v12.65Zm2.31-24.76V50.83l.78.54V77Zm0,24.76V91.17l.78.78v10.33Zm2.32-26.69v-23l.77.77V74.82Zm0,26.69V93.49l.77.77v8ZM75,72.58v-17l.77,1.15V71.35Zm0,29.7V95.8l.77.77v5.71Zm2.32,0V98.12l.77.77v3.39Zm2.31,0v-1.85l.77.77v1.08Z" style="fill:#ff0090"></path><path d="M88.24,91.41l.38-.78h45.2l.31.78Zm1.15-2.32.39-.77h42.89l.38.77Zm1.16-2.31.39-.77h40.57l.39.77Zm1.16-2.32.38-.77h38.26l.39.77Zm1.16-2.31.38-.77H129.2l.38.77ZM94,79.83l.39-.77H128l.38.77Zm1.08-2.31.39-.77h31.39l.39.77Zm1.16-2.31.39-.77h29.08l.38.77Zm1.16-2.32.38-.77h26.77l.38.77Zm1.15-2.31.39-.77h24.45l.39.77Zm1.16-2.31.39-.78h22.13l.39.78ZM100.89,66l.31-.77h19.9l.38.77ZM102,63.64l.39-.77h17.51l.39.77Zm1.16-2.32.39-.77h15.19l.39.77ZM104.36,59l.38-.77h12.89L118,59Zm1.16-2.32.38-.77h10.57l.38.77Zm1.15-2.31.39-.77h8.25l.39.77Zm1.16-2.31.39-.77h5.93l.39.77ZM109,49.75l.38-.77H113l.38.77Zm1.15-2.31.39-.77h1.31l.39.77Z" style="fill:#ff0090"></path><path d="M145.39,102.28V48h.77v54.3Zm2.31,0V48h.78v54.3Zm2.32,0V48h.77v54.3Zm2.31,0V48h.77v54.3Zm2.32,0V48h.77v54.3Zm2.31,0V48h.77v54.3Zm2.31,0V48h.78v54.3Zm2.32,0V48h.77v54.3Zm2.31,0V48h.77v54.3Zm2.32,0V48H167v54.3Zm2.31,0V48h.77v54.3Zm2.31,0V48h.78v54.3Zm2.32,0V48h.77v54.3Zm2.31,0V48h.77v54.3Z" style="fill:#ff0090"></path><path d="M187.43,47.75h.77v54.69h-.77Zm2.31,0h.77v54.69h-.77Zm2.31,0h.78v54.69h-.78Zm2.32,0h.77v54.69h-.77Zm2.31.07h.77v54.46l-.77.08ZM199,48l.77.15V101.9l-.77.15Zm2.31.46.77.23v52.76l-.77.24Zm2.31.62.78.31v51.37l-.78.23Zm2.32.92.77.39V99.74l-.77.38Zm2.31,1.16.77.54V98.5l-.77.46Zm2.32,1.54.77.62V96.81l-.77.61Zm2.31,1.85.77.85V94.8l-.77.69Zm2.31,2.55L216,58V92.1l-.78.93Zm2.32,3.24.77,1.54V88.32l-.77,1.31Zm2.31,5.17.77,3V81.69l-.77,3.16Z" style="fill:#ff0090"></path><path d="M22.14,102.36H0V91.64H19.82A5.49,5.49,0,0,0,25.07,86a5.37,5.37,0,0,0-5.32-5.48H11.18v-11h5.17A5.48,5.48,0,0,0,22,64a5.32,5.32,0,0,0-5.16-5.4H0V47.9H16.35A16.2,16.2,0,0,1,32.86,64,16.41,16.41,0,0,1,30,73.28,16.79,16.79,0,0,1,36,86,16.57,16.57,0,0,1,22.14,102.36Z" style="fill:#241f20"></path><path d="M66.64,102.36,44.81,80.53v-11H61.17A5.53,5.53,0,0,0,66.8,64a5.32,5.32,0,0,0-5.17-5.4H44.81V47.9H61.17A16.19,16.19,0,0,1,77.67,64a16.52,16.52,0,0,1-16.5,16.51H60l21.83,21.83Z" style="fill:#241f20"></path><path d="M127.65,102.28,111.22,69.42,94.64,102.28H82.53l28.54-57.16c0-.07.08-.15.08-.23l28.46,57.39Z" style="fill:#241f20"></path><path d="M145,47.9h12.42l19.06,33.32v21.14Z" style="fill:#241f20"></path><path d="M221.52,75.13c0,15.66-11.34,27.46-27.08,27.46-2.39,0-4.78-.08-7.17-.08V91.71h6.56c9.56,0,17-7,17-16.66a16.22,16.22,0,0,0-16.66-16.66h-6.94V47.67h8C210.8,47.67,221.52,59.93,221.52,75.13Z" style="fill:#241f20"></path><path d="M271.32,102.59H249.18V91.87H269a5.49,5.49,0,0,0,5.25-5.63,5.37,5.37,0,0,0-5.32-5.48h-8.57v-11h5.17a5.48,5.48,0,0,0,5.63-5.48,5.32,5.32,0,0,0-5.17-5.4H249.18V48.13h16.35a16.19,16.19,0,0,1,13.65,25.38,16.76,16.76,0,0,1,5.94,12.73A16.56,16.56,0,0,1,271.32,102.59Z" style="fill:#241f20"></path><path d="M309.73,103a16.55,16.55,0,0,1-16.51-16.36V48.13h10.72V86.7a5.71,5.71,0,0,0,11.42-.23h.08V48.13h10.72V86.47A16.47,16.47,0,0,1,309.73,103Z" style="fill:#241f20"></path><path d="M336.18,102.59V48.13H346.9v54.46Z" style="fill:#241f20"></path><path d="M357.7,102.59V91.79h36.41v10.8Z" style="fill:#241f20"></path><path d="M435.3,75.36c0,15.66-11.34,27.46-27.08,27.46-2.39,0-4.78-.08-7.17-.08V92h6.55c9.57,0,17-7,17-16.67A16.22,16.22,0,0,0,408,58.62h-6.94V47.9h8C424.57,47.9,435.3,60.17,435.3,75.36Z" style="fill:#241f20"></path><path d="M442.85,58.93V48.13h35.79v10.8Zm0,21.83v-11h22.37v11Zm0,21.83V91.79h35.64v10.8Z" style="fill:#241f20"></path><path d="M510.5,102.59,488.67,80.76v-11H505a5.53,5.53,0,0,0,5.63-5.48,5.32,5.32,0,0,0-5.17-5.4H488.67V48.13H505a16.21,16.21,0,0,1,16.51,16.12A16.53,16.53,0,0,1,505,80.76h-1.16l21.83,21.83Z" style="fill:#241f20"></path><path d="M546,102.74h-.93V91.87c3.32,0,6.25-2.16,6.25-5.63,0-3.24-2.63-5.25-5.63-5.4a22.78,22.78,0,0,1-5.56-.93A16.31,16.31,0,0,1,528.7,64.25c0-9.87,7.79-16.12,17.28-16.12V58.85h-.47a5.46,5.46,0,0,0-5.94,5.4c0,3.4,3.09,5.4,6.17,5.56a19.56,19.56,0,0,1,4.71.69A16.47,16.47,0,0,1,546,102.74Z" style="fill:#241f20"></path></g></g></svg>